<?xml version="1.0" encoding="UTF-8" standalone="no"?>
<!-- Created with Inkscape (http://www.inkscape.org/) -->

<svg
   width="510"
   height="220"
   viewBox="0 0 134.9375 58.208335"
   version="1.1"
   id="svg3615"
   inkscape:version="1.1 (c68e22c387, 2021-05-23)"
   sodipodi:docname="logo_SuedTextil_branco.svg"
   xmlns:inkscape="http://www.inkscape.org/namespaces/inkscape"
   xmlns:sodipodi="http://sodipodi.sourceforge.net/DTD/sodipodi-0.dtd"
   xmlns="http://www.w3.org/2000/svg"
   xmlns:svg="http://www.w3.org/2000/svg">
  <sodipodi:namedview
     id="namedview3617"
     pagecolor="#ffffff"
     bordercolor="#666666"
     borderopacity="1.0"
     inkscape:pageshadow="2"
     inkscape:pageopacity="0.0"
     inkscape:pagecheckerboard="0"
     inkscape:document-units="mm"
     showgrid="false"
     units="px"
     inkscape:zoom="1.0753423"
     inkscape:cx="198.54143"
     inkscape:cy="182.73251"
     inkscape:window-width="1920"
     inkscape:window-height="1016"
     inkscape:window-x="1920"
     inkscape:window-y="27"
     inkscape:window-maximized="1"
     inkscape:current-layer="layer1" />
  <defs
     id="defs3612" />
  <g
     inkscape:label="Layer 1"
     inkscape:groupmode="layer"
     id="layer1">
    <g
       id="g3866"
       transform="matrix(1.1222635,0,0,1.1222635,32.562447,-157.43512)"
       style="stroke-width:0.891056;fill:#ffffff">
      <path
         style="color:#000000;font-style:normal;font-variant:normal;font-weight:normal;font-stretch:normal;font-size:medium;line-height:normal;font-family:sans-serif;font-variant-ligatures:normal;font-variant-position:normal;font-variant-caps:normal;font-variant-numeric:normal;font-variant-alternates:normal;font-variant-east-asian:normal;font-feature-settings:normal;font-variation-settings:normal;text-indent:0;text-align:start;text-decoration:none;text-decoration-line:none;text-decoration-style:solid;text-decoration-color:#000000;letter-spacing:normal;word-spacing:normal;text-transform:none;writing-mode:lr-tb;direction:ltr;text-orientation:mixed;dominant-baseline:auto;baseline-shift:baseline;text-anchor:start;white-space:normal;shape-padding:0;shape-margin:0;inline-size:0;clip-rule:nonzero;display:inline;overflow:visible;visibility:visible;isolation:auto;mix-blend-mode:normal;color-interpolation:sRGB;color-interpolation-filters:linearRGB;solid-color:#000000;solid-opacity:1;vector-effect:none;fill:#ffffff;fill-opacity:1;fill-rule:evenodd;stroke:none;stroke-width:0.638228;stroke-linecap:butt;stroke-linejoin:round;stroke-miterlimit:4;stroke-dasharray:none;stroke-dashoffset:0;stroke-opacity:1;paint-order:stroke markers fill;color-rendering:auto;image-rendering:auto;shape-rendering:auto;text-rendering:auto;enable-background:accumulate;stop-color:#000000"
         d="m -18.280322,184.25549 h 1.823475 v 1.54649 h 0.715542 v 1.50033 h -0.715542 v 4.27016 h -1.823475 v -4.27016 h -0.669374 v -1.50033 h 0.669374 z m 0,0 z m 25.043947,5.56275 h 1.54649 c -0.300063,1.29259 -1.03869,1.93889 -2.192786,1.93889 -0.738626,0 -1.315674,-0.27699 -1.754232,-0.83095 -0.415474,-0.55397 -0.623211,-1.33876 -0.623211,-2.3082 0,-0.92328 0.207737,-1.63882 0.623211,-2.19279 0.438558,-0.55396 0.992527,-0.83095 1.708069,-0.83095 0.415474,0 0.830948,0.13849 1.223343,0.3924 0.392395,0.27698 0.669379,0.62321 0.854032,1.06176 0.184658,0.43856 0.276985,1.13102 0.300069,2.07738 H 5.424871 c 0.02307,0.85404 0.2539,1.2926 0.715538,1.2926 0.138494,0 0.276984,-0.0461 0.415478,-0.16158 0.115411,-0.11541 0.184654,-0.27698 0.207738,-0.43856 z m 0,0 z M 5.44795,188.13326 h 1.315675 c -0.02307,-0.3924 -0.06925,-0.69246 -0.161574,-0.9002 -0.115411,-0.18466 -0.276985,-0.27698 -0.484722,-0.27698 -0.230821,0 -0.415478,0.0923 -0.530884,0.27698 -0.09233,0.18466 -0.138495,0.48472 -0.138495,0.9002 z m 0,0 z m -1.477243,-3.18531 1.315669,-1.84656 h 1.638822 l 1.292591,1.84656 H 6.809788 l -0.738622,-0.92328 -0.669379,0.92328 z m 0,0 z m 20.704529,0.85403 h 2.07738 c 0.461637,0.99252 0.738621,1.61574 0.784785,1.84656 v 0 c 0.09233,-0.32315 0.346231,-0.94637 0.784789,-1.84656 h 2.10046 l -1.846559,2.90833 1.869643,2.86216 h -2.054296 c -0.392395,-0.87711 -0.66938,-1.52341 -0.854037,-1.9158 v 0 c -0.02307,0.13849 -0.13849,0.43856 -0.369311,0.92328 l -0.461638,0.99252 H 24.69832 l 1.823475,-2.83908 z m 0,0 z m 22.55109,-1.54649 h 1.82348 v 1.54649 h 0.71554 v 1.50033 h -0.73862 v 4.27016 h -1.8004 v -4.27016 h -0.69246 v -1.50033 h 0.69246 z m 0,0 z m 19.18112,-0.18466 c 0,-0.27698 0.0923,-0.50781 0.27699,-0.69246 0.18466,-0.18466 0.41547,-0.27698 0.69246,-0.27698 0.2539,0 0.48472,0.0923 0.66938,0.27698 0.18465,0.18465 0.27698,0.41548 0.27698,0.69246 0,0.2539 -0.0923,0.48472 -0.27698,0.66938 -0.18466,0.18465 -0.41548,0.30006 -0.66938,0.30006 -0.27699,0 -0.48472,-0.11541 -0.69246,-0.30006 -0.18466,-0.18466 -0.27699,-0.41548 -0.27699,-0.66938 z m 0,0 z m 0.0462,1.73115 h 1.82348 v 5.77049 h -1.82348 z m 0,0 z m 19.04264,-3.0699 h 1.82347 v 8.84039 h -1.82347 z"
         id="path972" />
      <path
         id="path884"
         style="color:#000000;font-style:normal;font-variant:normal;font-weight:normal;font-stretch:normal;font-size:medium;line-height:normal;font-family:sans-serif;font-variant-ligatures:normal;font-variant-position:normal;font-variant-caps:normal;font-variant-numeric:normal;font-variant-alternates:normal;font-variant-east-asian:normal;font-feature-settings:normal;font-variation-settings:normal;text-indent:0;text-align:start;text-decoration:none;text-decoration-line:none;text-decoration-style:solid;text-decoration-color:#000000;letter-spacing:normal;word-spacing:normal;text-transform:none;writing-mode:lr-tb;direction:ltr;text-orientation:mixed;dominant-baseline:auto;baseline-shift:baseline;text-anchor:start;white-space:normal;shape-padding:0;shape-margin:0;inline-size:0;clip-rule:nonzero;display:inline;overflow:visible;visibility:visible;isolation:auto;mix-blend-mode:normal;color-interpolation:sRGB;color-interpolation-filters:linearRGB;solid-color:#000000;solid-opacity:1;vector-effect:none;fill:#ffffff;fill-opacity:1;fill-rule:evenodd;stroke:none;stroke-width:0.638228;stroke-linecap:butt;stroke-linejoin:round;stroke-miterlimit:4;stroke-dasharray:none;stroke-dashoffset:0;stroke-opacity:1;paint-order:stroke markers fill;color-rendering:auto;image-rendering:auto;shape-rendering:auto;text-rendering:auto;enable-background:accumulate;stop-color:#000000"
         d="m 85.796216,140.67689 c -1.1541,0 -2.14656,0.41558 -2.97751,1.24653 -0.80787,0.83095 -1.20002,1.82323 -1.20002,3.00041 v 25.5288 h -6.23263 c -0.83096,0 -1.59255,-0.16149 -2.26193,-0.46155 -0.69246,-0.32315 -1.31531,-0.73855 -1.84619,-1.26943 -0.55397,-0.5078 -0.96955,-1.13134 -1.24653,-1.84689 -0.30007,-0.69245 -0.43865,-1.43115 -0.43865,-2.23902 0,-0.78479 0.13858,-1.52367 0.43865,-2.21613 0.27698,-0.69246 0.69256,-1.2924 1.24653,-1.82328 0.53088,-0.5078 1.15373,-0.92338 1.84619,-1.24653 0.66938,-0.30007 1.43097,-0.46155 2.26193,-0.46155 h 0.73917 c 1.17718,0 2.16945,-0.39215 3.00041,-1.20002 0.83095,-0.78479 1.24652,-1.75452 1.24652,-2.9317 0,-1.20026 -0.41557,-2.21544 -1.24652,-3.02331 -0.83096,-0.80787 -1.82323,-1.20072 -3.00041,-1.20072 h -0.73917 c -1.98505,0 -3.85462,0.50772 -5.58577,1.26943 -1.73115,0.76171 -3.23128,1.77758 -4.52387,3.02401 -1.29259,1.24642 -2.30846,2.72366 -3.024,4.40865 -0.73863,1.68498 -1.10772,3.48534 -1.10772,5.40115 0,2.00813 0.39251,3.85462 1.15422,5.58577 0.78479,1.73115 1.82372,3.23145 3.11632,4.50096 1.31567,1.26951 2.8387,2.26247 4.54676,3.0011 1.70807,0.73862 3.50825,1.15352 5.42406,1.15352 h 10.41016 v -0.003 c 0.0234,3.2e-4 0.0458,0.003 0.0694,0.003 1.1541,0 2.16964,-0.41488 2.97751,-1.24583 0.80786,-0.83095 1.20002,-1.82392 1.20002,-3.0011 v -1.66157 -28.04476 c 0,-1.17718 -0.39216,-2.16946 -1.20002,-3.00041 -0.80787,-0.83095 -1.82357,-1.24653 -3.04691,-1.24653 z m -37.00018,9.85561 c -1.9158,0 -3.71598,0.41559 -5.42405,1.15422 -1.70807,0.71554 -3.2318,1.73159 -4.54747,3.0011 -1.06887,1.03137 -1.95152,2.2024 -2.65476,3.53275 v -3.32523 c 0,-1.1541 -0.39216,-2.14706 -1.20003,-3.0011 -0.83095,-0.83095 -1.80032,-1.24583 -2.9775,-1.24583 -1.20027,0 -2.216138,0.41488 -3.024007,1.24583 -0.807869,0.85404 -1.222929,1.847 -1.222929,3.0011 v 9.62518 c 0,0.83095 -0.161482,1.56948 -0.461549,2.26194 -0.323147,0.69245 -0.73872,1.3153 -1.246525,1.84619 -0.530886,0.53088 -1.154424,0.96954 -1.846887,1.24652 -0.715537,0.30007 -1.454061,0.43865 -2.26193,0.43865 -0.784785,0 -1.523665,-0.13858 -2.216125,-0.43865 -0.69246,-0.27698 -1.292583,-0.71564 -1.800385,-1.24652 -0.530889,-0.53089 -0.945769,-1.15374 -1.245832,-1.84619 -0.323144,-0.69246 -0.485145,-1.43099 -0.485145,-2.26194 v -9.62518 c 0,-1.1541 -0.392332,-2.14706 -1.17712,-3.0011 -0.807869,-0.83095 -1.776907,-1.24583 -2.931004,-1.24583 -1.223345,0 -2.216135,0.41488 -3.024004,1.24583 -0.830953,0.85404 -1.223623,1.847 -1.223623,3.0011 v 2.77623 C 7.297125,156.90143 6.697748,156.19087 6.024776,155.54151 4.709102,154.272 3.186073,153.27972 1.47801,152.5411 c -1.708071,-0.71554 -3.508942,-1.13131 -5.424748,-1.13131 h -9.601587 c -1.177184,0 -2.170148,0.39215 -3.001101,1.20002 -0.830946,0.80787 -1.245832,1.80102 -1.245832,2.9782 0,1.20027 0.414886,2.21544 1.245832,3.02331 0.830953,0.80787 1.823917,1.22362 3.001101,1.22362 h 9.601587 c 0.830953,0 1.59307,0.1384 2.28553,0.46155 0.692456,0.30007 1.292221,0.71565 1.84619,1.24653 0.530886,0.53088 0.946462,1.13065 1.246526,1.84619 0.276983,0.69246 0.438646,1.45406 0.438646,2.26193 0,0.78479 -0.161663,1.52367 -0.438646,2.21613 -0.300064,0.66938 -0.71564,1.29258 -1.246526,1.80038 -0.553969,0.53088 -1.153734,0.94646 -1.84619,1.24653 -0.69246,0.32314 -1.454577,0.46155 -2.28553,0.46155 h -18.465385 c -1.177184,0 -2.169455,0.39215 -3.000408,1.20002 -0.830949,0.78478 -1.246529,1.7776 -1.246529,2.9317 0,1.20025 0.41558,2.21613 1.246529,3.024 0.830953,0.80787 1.823224,1.22293 3.000408,1.22293 h 18.465385 c 2.008131,0 3.855317,-0.50755 5.586464,-1.29234 1.731147,-0.7617 3.25435,-1.77757 4.523863,-3.024 1.292591,-1.24643 2.308283,-2.70058 3.046911,-4.40865 0.0525,-0.12194 0.09907,-0.24629 0.147832,-0.36993 0.740412,1.49938 1.64879,2.81806 2.760265,3.9707 1.246426,1.29259 2.723664,2.30846 4.40865,3.024 1.684986,0.73863 3.48535,1.10772 5.401152,1.10772 2.008134,0 3.877525,-0.39233 5.608673,-1.17712 1.70807,-0.76171 3.208544,-1.80065 4.478054,-3.11632 1.26951,-1.29259 2.28556,-2.81579 3.00111,-4.52386 0.0981,-0.2269 0.18973,-0.45552 0.27623,-0.68573 0.10569,0.30875 0.21905,0.61549 0.34703,0.91685 0.73862,1.68499 1.7538,3.13914 3.02331,4.40865 1.29259,1.24643 2.81631,2.23852 4.54746,3.02331 1.73115,0.76171 3.57764,1.26943 5.58577,1.26943 h 9.60228 c 1.17718,0 2.16945,-0.39215 3.00041,-1.20002 0.83095,-0.83095 1.24652,-1.82357 1.24652,-3.04691 0,-1.1541 -0.41557,-2.14621 -1.24652,-2.93101 -0.83096,-0.78478 -1.82323,-1.17712 -3.00041,-1.17712 h -9.60228 c -0.83095,0 -1.59307,-0.16199 -2.28553,-0.48514 -0.69246,-0.30007 -1.2924,-0.71564 -1.82329,-1.24653 -0.55397,-0.5078 -0.96936,-1.10792 -1.26942,-1.80038 -0.27699,-0.69246 -0.43865,-1.43064 -0.43865,-2.21543 0,-0.80787 0.16166,-1.54709 0.43865,-2.26263 0.30006,-0.71554 0.71545,-1.3153 1.26942,-1.84619 0.53089,-0.5078 1.13083,-0.92338 1.82329,-1.24653 0.69246,-0.30006 1.45458,-0.46154 2.28553,-0.46154 h 9.60228 c 1.17718,0 2.16945,-0.41576 3.00041,-1.22363 0.83095,-0.80787 1.24652,-1.82304 1.24652,-3.02331 0,-1.17718 -0.41557,-2.14673 -1.24652,-2.9546 -0.83096,-0.83095 -1.82323,-1.22362 -3.00041,-1.22362 z" />
      <path
         id="path900"
         style="color:#000000;font-style:normal;font-variant:normal;font-weight:normal;font-stretch:normal;font-size:medium;line-height:normal;font-family:sans-serif;font-variant-ligatures:normal;font-variant-position:normal;font-variant-caps:normal;font-variant-numeric:normal;font-variant-alternates:normal;font-variant-east-asian:normal;font-feature-settings:normal;font-variation-settings:normal;text-indent:0;text-align:start;text-decoration:none;text-decoration-line:none;text-decoration-style:solid;text-decoration-color:#000000;letter-spacing:normal;word-spacing:normal;text-transform:none;writing-mode:lr-tb;direction:ltr;text-orientation:mixed;dominant-baseline:auto;baseline-shift:baseline;text-anchor:start;white-space:normal;shape-padding:0;shape-margin:0;inline-size:0;clip-rule:nonzero;display:inline;overflow:visible;visibility:visible;isolation:auto;mix-blend-mode:normal;color-interpolation:sRGB;color-interpolation-filters:linearRGB;solid-color:#000000;solid-opacity:1;vector-effect:none;fill:#ffffff;fill-opacity:1;fill-rule:evenodd;stroke:none;stroke-width:0.638228;stroke-linecap:butt;stroke-linejoin:round;stroke-miterlimit:4;stroke-dasharray:none;stroke-dashoffset:0;stroke-opacity:1;paint-order:stroke markers fill;color-rendering:auto;image-rendering:auto;shape-rendering:auto;text-rendering:auto;enable-background:accumulate;stop-color:#000000"
         d="m -13.594823,141.27656 c -1.985054,0 -3.854623,0.50842 -5.585774,1.27012 -1.731147,0.76171 -3.23127,1.77689 -4.52386,3.02331 -1.29259,1.24643 -2.308471,2.72367 -3.024008,4.40865 -0.738627,1.68499 -1.107716,3.48535 -1.107716,5.40115 0,2.00814 0.392514,3.87771 1.154218,5.58577 0.784785,1.73115 1.823032,3.23146 3.115623,4.50096 1.315674,1.26951 2.839396,2.28556 4.547459,3.0011 1.708067,0.73863 3.508249,1.15422 5.424058,1.15422 h 9.602276 c 1.177181,0 2.169459,-0.39285 3.000409,-1.20072 0.830953,-0.83095 1.246525,-1.80032 1.246525,-2.9775 0,-1.20026 -0.415572,-2.21614 -1.246525,-3.02401 -0.83095,-0.83095 -1.823228,-1.22293 -3.000409,-1.22293 h -9.602276 c -0.830953,0 -1.59238,-0.16148 -2.284836,-0.46154 -0.66938,-0.32315 -1.292406,-0.73873 -1.823288,-1.24653 -0.55397,-0.53088 -0.969546,-1.15442 -1.246526,-1.84688 -0.30007,-0.71555 -0.438645,-1.45407 -0.438645,-2.26194 0,-0.78478 0.138575,-1.52297 0.438645,-2.21543 0.27698,-0.69245 0.692556,-1.29258 1.246526,-1.80038 0.530882,-0.53088 1.153908,-0.94698 1.823288,-1.27013 0.692456,-0.30006 1.453883,-0.46154 2.284836,-0.46154 h 9.602276 c 1.177181,0 2.169459,-0.39233 3.000409,-1.17712 0.830953,-0.80787 1.246525,-1.7769 1.246525,-2.931 0,-1.22335 -0.415572,-2.21597 -1.246525,-3.04691 -0.83095,-0.80787 -1.823228,-1.20072 -3.000409,-1.20072 z m 61.998019,19.20455 c -1.17717,0 -2.16946,0.41575 -3.0004,1.22362 -0.83096,0.80787 -1.24653,1.82305 -1.24653,3.02332 0,1.17718 0.41557,2.16963 1.24653,2.9775 0.83094,0.80787 1.82323,1.22362 3.0004,1.22362 h 1.66227 4.40865 c 1.17718,0 2.16946,-0.41575 3.00041,-1.22362 0.83095,-0.80787 1.24653,-1.82305 1.24653,-3.02331 0,-1.17718 -0.41558,-2.16964 -1.24653,-2.97751 -0.83095,-0.80787 -1.82323,-1.22362 -3.00041,-1.22362 h -1.66227 z" />
    </g>
  </g>
</svg>
